<?xml version="1.0" encoding="UTF-8" standalone="no"?>
<svg
   xmlns:dc="http://purl.org/dc/elements/1.1/"
   xmlns:cc="http://creativecommons.org/ns#"
   xmlns:rdf="http://www.w3.org/1999/02/22-rdf-syntax-ns#"
   xmlns:svg="http://www.w3.org/2000/svg"
   xmlns="http://www.w3.org/2000/svg"
   xmlns:sodipodi="http://sodipodi.sourceforge.net/DTD/sodipodi-0.dtd"
   xmlns:inkscape="http://www.inkscape.org/namespaces/inkscape"
   width="26.793713mm"
   height="26.793713mm"
   viewBox="0 0 26.793713 26.793713"
   version="1.1"
   id="svg8"
   inkscape:version="1.0.1 (3bc2e813f5, 2020-09-07)"
   sodipodi:docname="circalog-logo.svg">
  <defs
     id="defs2">
    <marker
       style="overflow:visible;"
       id="Arrow1Mend"
       refX="0.0"
       refY="0.0"
       orient="auto"
       inkscape:stockid="Arrow1Mend"
       inkscape:isstock="true">
      <path
         transform="scale(0.4) rotate(180) translate(10,0)"
         style="fill-rule:evenodd;stroke:#6699ff;stroke-width:1pt;stroke-opacity:1;fill:#6699ff;fill-opacity:1"
         d="M 0.0,0.0 L 5.0,-5.0 L -12.5,0.0 L 5.0,5.0 L 0.0,0.0 z "
         id="path2829" />
    </marker>
    <marker
       style="overflow:visible;"
       id="marker3260"
       refX="0.0"
       refY="0.0"
       orient="auto"
       inkscape:stockid="Arrow1Lend"
       inkscape:isstock="true">
      <path
         transform="scale(0.8) rotate(180) translate(12.5,0)"
         style="fill-rule:evenodd;stroke:#000000;stroke-width:1pt;stroke-opacity:1;fill:#000000;fill-opacity:1"
         d="M 0.0,0.0 L 5.0,-5.0 L -12.5,0.0 L 5.0,5.0 L 0.0,0.0 z "
         id="path3258" />
    </marker>
    <marker
       style="overflow:visible;"
       id="Arrow1Lend"
       refX="0.0"
       refY="0.0"
       orient="auto"
       inkscape:stockid="Arrow1Lend"
       inkscape:isstock="true">
      <path
         transform="scale(0.8) rotate(180) translate(12.5,0)"
         style="fill-rule:evenodd;stroke:#000000;stroke-width:1pt;stroke-opacity:1;fill:#000000;fill-opacity:1"
         d="M 0.0,0.0 L 5.0,-5.0 L -12.5,0.0 L 5.0,5.0 L 0.0,0.0 z "
         id="path2823" />
    </marker>
    <marker
       style="overflow:visible;"
       id="Arrow2Lend"
       refX="0.0"
       refY="0.0"
       orient="auto"
       inkscape:stockid="Arrow2Lend"
       inkscape:isstock="true">
      <path
         transform="scale(1.1) rotate(180) translate(1,0)"
         d="M 8.7185878,4.0337352 L -2.2072895,0.016013256 L 8.7185884,-4.0017078 C 6.9730900,-1.6296469 6.9831476,1.6157441 8.7185878,4.0337352 z "
         style="fill-rule:evenodd;stroke-width:0.625;stroke-linejoin:round;stroke:none;stroke-opacity:1;fill:#6699ff;fill-opacity:1"
         id="path2841" />
    </marker>
    <marker
       style="overflow:visible"
       id="Arrow1Lstart"
       refX="0.0"
       refY="0.0"
       orient="auto"
       inkscape:stockid="Arrow1Lstart"
       inkscape:isstock="true">
      <path
         transform="scale(0.8) translate(12.5,0)"
         style="fill-rule:evenodd;stroke:#000000;stroke-width:1pt;stroke-opacity:1;fill:#000000;fill-opacity:1"
         d="M 0.0,0.0 L 5.0,-5.0 L -12.5,0.0 L 5.0,5.0 L 0.0,0.0 z "
         id="path2820" />
    </marker>
  </defs>
  <sodipodi:namedview
     id="base"
     pagecolor="#ffffff"
     bordercolor="#666666"
     borderopacity="1.0"
     inkscape:pageopacity="0.0"
     inkscape:pageshadow="2"
     inkscape:zoom="3.959798"
     inkscape:cx="42.537498"
     inkscape:cy="44.351913"
     inkscape:document-units="mm"
     inkscape:current-layer="layer1"
     inkscape:document-rotation="0"
     showgrid="false"
     showguides="true"
     inkscape:snap-center="true"
     inkscape:guide-bbox="true"
     inkscape:window-width="1920"
     inkscape:window-height="1001"
     inkscape:window-x="-9"
     inkscape:window-y="-9"
     inkscape:window-maximized="1"
     fit-margin-top="0"
     fit-margin-left="0"
     fit-margin-right="0"
     fit-margin-bottom="0">
    <sodipodi:guide
       position="13.396992,13.396718"
       orientation="1,0"
       id="guide846" />
  </sodipodi:namedview>
  <metadata
     id="metadata5">
    <rdf:RDF>
      <cc:Work
         rdf:about="">
        <dc:format>image/svg+xml</dc:format>
        <dc:type
           rdf:resource="http://purl.org/dc/dcmitype/StillImage" />
        <dc:title></dc:title>
      </cc:Work>
    </rdf:RDF>
  </metadata>
  <g
     inkscape:label="Calque 1"
     inkscape:groupmode="layer"
     id="layer1"
     transform="translate(-83.922525,-110.24857)">
    <path
       id="path837"
       style="fill:#6699ff;stroke-width:2"
       d="m 367.82227,416.6875 a 50.633896,50.633896 0 0 0 -50.63477,50.63477 50.633896,50.633896 0 0 0 50.63477,50.63281 50.633896,50.633896 0 0 0 50.63281,-50.63281 50.633896,50.633896 0 0 0 -50.63281,-50.63477 z m -0.004,13.38477 a 37.249373,37.249373 0 0 1 0.004,0 37.249373,37.249373 0 0 1 37.24804,37.25 37.249373,37.249373 0 0 1 -37.24804,37.24804 37.249373,37.249373 0 0 1 -37.25,-37.24804 37.249373,37.249373 0 0 1 37.24609,-37.25 z"
       transform="scale(0.26458333)" />
    <rect
       style="fill:#ffffff;stroke-width:0.450234"
       id="rect841"
       width="19.009556"
       height="41.894501"
       x="97.319519"
       y="104.76965"
       rx="0.18725546"
       ry="0.18725546" />
    <rect
       style="fill:#6699ff;stroke-width:0.502708"
       id="rect868"
       width="2.5390604"
       height="2.5390604"
       x="126.07115"
       y="81.57119"
       rx="0.24573566"
       ry="0.24573566"
       transform="rotate(14.931418)" />
    <rect
       style="fill:#6699ff;stroke-width:0.502708"
       id="rect868-9"
       width="2.5390604"
       height="2.5390604"
       x="153.95302"
       y="29.862783"
       rx="0.24573566"
       transform="rotate(35.987803)"
       ry="0.24573566" />
    <rect
       style="fill:#6699ff;stroke-width:0.502708"
       id="rect868-2"
       width="2.5390604"
       height="2.5390604"
       x="148.80388"
       y="-69.145851"
       rx="0.24573566"
       transform="rotate(72.758545)"
       ry="0.24573566" />
    <rect
       style="fill:#6699ff;stroke-width:0.502708"
       id="rect868-4"
       width="2.5390604"
       height="2.5390604"
       x="148.42522"
       y="77.793091"
       rx="0.24573566"
       transform="rotate(22.619867)"
       ry="0.24573566" />
    <rect
       style="fill:#6699ff;stroke-width:0.502708"
       id="rect868-6"
       width="2.5390604"
       height="2.5390604"
       x="115.33983"
       y="120.51359"
       rx="0.24573566"
       ry="0.24573566"
       transform="rotate(6.632515)" />
    <path
       style="fill:#6699ff;stroke:#6699ff;stroke-width:0.565;stroke-linecap:butt;stroke-linejoin:miter;stroke-opacity:1;stroke-miterlimit:4;stroke-dasharray:none;marker-end:url(#Arrow1Mend)"
       d="m 97.319517,123.64556 6.966473,-4.51455"
       id="path3146" />
  </g>
</svg>
