<svg id="graph-div" width="100%" xmlns="http://www.w3.org/2000/svg" xmlns:xlink="http://www.w3.org/1999/xlink" height="540.921875" style="max-width: 992.1015625px;" viewBox="-20 -20 992.1015625 540.921875"><style>#graph-div{font-family:"trebuchet ms",verdana,arial,sans-serif;font-size:16px;fill:#333;}#graph-div .error-icon{fill:#552222;}#graph-div .error-text{fill:#552222;stroke:#552222;}#graph-div .edge-thickness-normal{stroke-width:2px;}#graph-div .edge-thickness-thick{stroke-width:3.5px;}#graph-div .edge-pattern-solid{stroke-dasharray:0;}#graph-div .edge-pattern-dashed{stroke-dasharray:3;}#graph-div .edge-pattern-dotted{stroke-dasharray:2;}#graph-div .marker{fill:#333333;stroke:#333333;}#graph-div .marker.cross{stroke:#333333;}#graph-div svg{font-family:"trebuchet ms",verdana,arial,sans-serif;font-size:16px;}#graph-div g.classGroup text{fill:#9370DB;fill:#131300;stroke:none;font-family:"trebuchet ms",verdana,arial,sans-serif;font-size:10px;}#graph-div g.classGroup text .title{font-weight:bolder;}#graph-div .classTitle{font-weight:bolder;}#graph-div .node rect,#graph-div .node circle,#graph-div .node ellipse,#graph-div .node polygon,#graph-div .node path{fill:#ECECFF;stroke:#9370DB;stroke-width:1px;}#graph-div .divider{stroke:#9370DB;stroke:1;}#graph-div g.clickable{cursor:pointer;}#graph-div g.classGroup rect{fill:#ECECFF;stroke:#9370DB;}#graph-div g.classGroup line{stroke:#9370DB;stroke-width:1;}#graph-div .classLabel .box{stroke:none;stroke-width:0;fill:#ECECFF;opacity:0.5;}#graph-div .classLabel .label{fill:#9370DB;font-size:10px;}#graph-div .relation{stroke:#333333;stroke-width:1;fill:none;}#graph-div .dashed-line{stroke-dasharray:3;}#graph-div #compositionStart,#graph-div .composition{fill:#333333 !important;stroke:#333333 !important;stroke-width:1;}#graph-div #compositionEnd,#graph-div .composition{fill:#333333 !important;stroke:#333333 !important;stroke-width:1;}#graph-div #dependencyStart,#graph-div .dependency{fill:#333333 !important;stroke:#333333 !important;stroke-width:1;}#graph-div #dependencyStart,#graph-div .dependency{fill:#333333 !important;stroke:#333333 !important;stroke-width:1;}#graph-div #extensionStart,#graph-div .extension{fill:#333333 !important;stroke:#333333 !important;stroke-width:1;}#graph-div #extensionEnd,#graph-div .extension{fill:#333333 !important;stroke:#333333 !important;stroke-width:1;}#graph-div #aggregationStart,#graph-div .aggregation{fill:#ECECFF !important;stroke:#333333 !important;stroke-width:1;}#graph-div #aggregationEnd,#graph-div .aggregation{fill:#ECECFF !important;stroke:#333333 !important;stroke-width:1;}#graph-div .edgeTerminals{font-size:11px;}#graph-div:root{--mermaid-font-family:"trebuchet ms",verdana,arial,sans-serif;}</style><g></g><defs><marker id="extensionStart" class="extension" refX="0" refY="7" markerWidth="190" markerHeight="240" orient="auto"><path d="M 1,7 L18,13 V 1 Z"></path></marker></defs><defs><marker id="extensionEnd" refX="19" refY="7" markerWidth="20" markerHeight="28" orient="auto"><path d="M 1,1 V 13 L18,7 Z"></path></marker></defs><defs><marker id="compositionStart" class="extension" refX="0" refY="7" markerWidth="190" markerHeight="240" orient="auto"><path d="M 18,7 L9,13 L1,7 L9,1 Z"></path></marker></defs><defs><marker id="compositionEnd" refX="19" refY="7" markerWidth="20" markerHeight="28" orient="auto"><path d="M 18,7 L9,13 L1,7 L9,1 Z"></path></marker></defs><defs><marker id="aggregationStart" class="extension" refX="0" refY="7" markerWidth="190" markerHeight="240" orient="auto"><path d="M 18,7 L9,13 L1,7 L9,1 Z"></path></marker></defs><defs><marker id="aggregationEnd" refX="19" refY="7" markerWidth="20" markerHeight="28" orient="auto"><path d="M 18,7 L9,13 L1,7 L9,1 Z"></path></marker></defs><defs><marker id="dependencyStart" class="extension" refX="0" refY="7" markerWidth="190" markerHeight="240" orient="auto"><path d="M 5,7 L9,13 L1,7 L9,1 Z"></path></marker></defs><defs><marker id="dependencyEnd" refX="19" refY="7" markerWidth="20" markerHeight="28" orient="auto"><path d="M 18,7 L9,13 L14,7 L9,1 Z"></path></marker></defs><g id="classid-event-11" class="classGroup" transform="translate(184.25,153.640625 )"><rect x="0" y="0" width="134.25" height="143.640625" class=" "></rect><text y="15" x="0"><tspan class="title" x="53.3828125">event</tspan></text><line x1="0" y1="22.015625" y2="22.015625" x2="134.25"></line><text x="5" y="32.015625" fill="white" class="classText"><tspan x="5">Hash id</tspan><tspan x="5" dy="10">Datetime created_on</tspan><tspan x="5" dy="10">Datetime last_change</tspan><tspan x="5" dy="10">Link account_id</tspan><tspan x="5" dy="10">Link event_type_id</tspan><tspan x="5" dy="10">Datetime pre_start_time</tspan><tspan x="5" dy="10">Datetime start_time</tspan><tspan x="5" dy="10">Datetime end_time</tspan><tspan x="5" dy="10">Datetime post_end_time</tspan><tspan x="5" dy="10">String_varlength comment</tspan><tspan x="5" dy="10">Blob additional_data</tspan></text><line x1="0" y1="139.03125" y2="139.03125" x2="134.25"></line><text x="5" y="154.03125" fill="white" class="classText"></text></g><g id="classid-event_type-12" class="classGroup" transform="translate(296.5078125,372.28125 )"><rect x="0" y="0" width="181.5" height="103.640625" class=" "></rect><text y="15" x="0"><tspan class="title" x="63.734375">event_type</tspan></text><line x1="0" y1="22.015625" y2="22.015625" x2="181.5"></line><text x="5" y="32.015625" fill="white" class="classText"><tspan x="5">Hash id</tspan><tspan x="5" dy="10">Datetime created_on</tspan><tspan x="5" dy="10">Datetime last_change</tspan><tspan x="5" dy="10">Boolean punctual_or_duration_event</tspan><tspan x="5" dy="10">Boolean enable_pre_and_post_time</tspan><tspan x="5" dy="10">String_varlength comment</tspan><tspan x="5" dy="10">Blob additional_data</tspan></text><line x1="0" y1="99.03125" y2="99.03125" x2="181.5"></line><text x="5" y="114.03125" fill="white" class="classText"></text></g><g id="classid-tag-13" class="classGroup" transform="translate(10.8203125,10 )"><rect x="0" y="0" width="112.609375" height="83.640625" class=" "></rect><text y="15" x="0"><tspan class="title" x="48.8515625">tag</tspan></text><line x1="0" y1="22.015625" y2="22.015625" x2="112.609375"></line><text x="5" y="32.015625" fill="white" class="classText"><tspan x="5">Hash id</tspan><tspan x="5" dy="10">Link event_id</tspan><tspan x="5" dy="10">Link tag_type_id</tspan><tspan x="5" dy="10">Datetime created_on</tspan><tspan x="5" dy="10">Datetime last_change</tspan></text><line x1="0" y1="79.03125" y2="79.03125" x2="112.609375"></line><text x="5" y="94.03125" fill="white" class="classText"></text></g><g id="classid-tag_type-14" class="classGroup" transform="translate(0,178.640625 )"><rect x="0" y="0" width="134.25" height="93.640625" class=" "></rect><text y="15" x="0"><tspan class="title" x="46.2734375">tag_type</tspan></text><line x1="0" y1="22.015625" y2="22.015625" x2="134.25"></line><text x="5" y="32.015625" fill="white" class="classText"><tspan x="5">Hash id</tspan><tspan x="5" dy="10">Datetime created_on</tspan><tspan x="5" dy="10">Datetime last_change</tspan><tspan x="5" dy="10">String name</tspan><tspan x="5" dy="10">String_varlength comment</tspan><tspan x="5" dy="10">Blob additional_data</tspan></text><line x1="0" y1="89.03125" y2="89.03125" x2="134.25"></line><text x="5" y="104.03125" fill="white" class="classText"></text></g><g id="classid-tap-15" class="classGroup" transform="translate(499.8046875,5 )"><rect x="0" y="0" width="111.109375" height="93.640625" class=" "></rect><text y="15" x="0"><tspan class="title" x="47.703125">tap</tspan></text><line x1="0" y1="22.015625" y2="22.015625" x2="111.109375"></line><text x="5" y="32.015625" fill="white" class="classText"><tspan x="5">Link event_type_id</tspan><tspan x="5" dy="10">Boolean active</tspan><tspan x="5" dy="10">Int state</tspan><tspan x="5" dy="10">Datetime first_tap</tspan><tspan x="5" dy="10">Datetime second_tap</tspan><tspan x="5" dy="10">Datetime third_tap</tspan></text><line x1="0" y1="89.03125" y2="89.03125" x2="111.109375"></line><text x="5" y="104.03125" fill="white" class="classText"></text></g><g id="classid-account-16" class="classGroup" transform="translate(205.2421875,25 )"><rect x="0" y="0" width="68.640625" height="53.640625" class=" "></rect><text y="15" x="0"><tspan class="title" x="15.3984375">account</tspan></text><line x1="0" y1="22.015625" y2="22.015625" x2="68.640625"></line><text x="5" y="32.015625" fill="white" class="classText"><tspan x="5">Hash id</tspan><tspan x="5" dy="10">String name</tspan></text><line x1="0" y1="49.03125" y2="49.03125" x2="68.640625"></line><text x="5" y="64.03125" fill="white" class="classText"></text></g><g id="classid-subquestion_event_types_junction-17" class="classGroup" transform="translate(378.5,183.640625 )"><rect x="0" y="0" width="175.34375" height="83.640625" class=" "></rect><text y="15" x="0"><tspan class="title" x="5">subquestion_event_types_junction</tspan></text><line x1="0" y1="22.015625" y2="22.015625" x2="175.34375"></line><text x="5" y="32.015625" fill="white" class="classText"><tspan x="5">Hash id</tspan><tspan x="5" dy="10">Link event_type_id</tspan><tspan x="5" dy="10">Link subquestion_type_id</tspan><tspan x="5" dy="10">Datetime created_on</tspan><tspan x="5" dy="10">Datetime last_change</tspan></text><line x1="0" y1="79.03125" y2="79.03125" x2="175.34375"></line><text x="5" y="94.03125" fill="white" class="classText"></text></g><g id="classid-subquestion_type-18" class="classGroup" transform="translate(647.08203125,347.28125 )"><rect x="0" y="0" width="142.890625" height="153.640625" class=" "></rect><text y="15" x="0"><tspan class="title" x="29.578125">subquestion_type</tspan></text><line x1="0" y1="22.015625" y2="22.015625" x2="142.890625"></line><text x="5" y="32.015625" fill="white" class="classText"><tspan x="5">Hash id</tspan><tspan x="5" dy="10">Datetime created_on</tspan><tspan x="5" dy="10">Datetime last_change</tspan><tspan x="5" dy="10">Int order_id</tspan><tspan x="5" dy="10">Int rating_range_min</tspan><tspan x="5" dy="10">Int rating_range_max</tspan><tspan x="5" dy="10">String name</tspan><tspan x="5" dy="10">String text</tspan><tspan x="5" dy="10">Boolean open_ended</tspan><tspan x="5" dy="10">Boolean rating_range_invert</tspan><tspan x="5" dy="10">String_varlength comment</tspan><tspan x="5" dy="10">Blob additional_data</tspan></text><line x1="0" y1="149.03125" y2="149.03125" x2="142.890625"></line><text x="5" y="164.03125" fill="white" class="classText"></text></g><g id="classid-subquestion-19" class="classGroup" transform="translate(660.9140625,0 )"><rect x="0" y="0" width="128.578125" height="103.640625" class=" "></rect><text y="15" x="0"><tspan class="title" x="35.8671875">subquestion</tspan></text><line x1="0" y1="22.015625" y2="22.015625" x2="128.578125"></line><text x="5" y="32.015625" fill="white" class="classText"><tspan x="5">Hash id</tspan><tspan x="5" dy="10">Link event_id</tspan><tspan x="5" dy="10">Link subquestion_type_id</tspan><tspan x="5" dy="10">Datetime created_on</tspan><tspan x="5" dy="10">Datetime last_change</tspan><tspan x="5" dy="10">Blob value</tspan><tspan x="5" dy="10">Blob additional_data</tspan></text><line x1="0" y1="99.03125" y2="99.03125" x2="128.578125"></line><text x="5" y="114.03125" fill="white" class="classText"></text></g><g id="classid-sync-20" class="classGroup" transform="translate(839.4921875,20 )"><rect x="0" y="0" width="112.609375" height="63.640625" class=" "></rect><text y="15" x="0"><tspan class="title" x="45.7265625">sync</tspan></text><line x1="0" y1="22.015625" y2="22.015625" x2="112.609375"></line><text x="5" y="32.015625" fill="white" class="classText"><tspan x="5">String table_name</tspan><tspan x="5" dy="10">Link id</tspan><tspan x="5" dy="10">Datetime last_change</tspan></text><line x1="0" y1="59.03125" y2="59.03125" x2="112.609375"></line><text x="5" y="74.03125" fill="white" class="classText"></text></g><g id="classid-options-21" class="classGroup" transform="translate(839.4921875,193.640625 )"><rect x="0" y="0" width="112.609375" height="63.640625" class=" "></rect><text y="15" x="0"><tspan class="title" x="38.90625">options</tspan></text><line x1="0" y1="22.015625" y2="22.015625" x2="112.609375"></line><text x="5" y="32.015625" fill="white" class="classText"><tspan x="5">String name</tspan><tspan x="5" dy="10">Datetime last_change</tspan><tspan x="5" dy="10">Any value</tspan></text><line x1="0" y1="59.03125" y2="59.03125" x2="112.609375"></line><text x="5" y="74.03125" fill="white" class="classText"></text></g><path d="M251.375,297.28125L251.375,301.4479166666667C251.375,305.6145833333333,251.375,313.9479166666667,262.4961284176066,326.4479166666667C273.61725683521314,338.9479166666667,295.85951367042634,355.6145833333333,306.98064208803294,363.9479166666667L318.10177050563954,372.28125" id="edge0" class="relation dashed-line"></path><g class="classLabel"><rect class="box" x="255.953125" y="327.671875" width="38.3125" height="17.015625"></rect><text class="label" x="274.7351424527168" y="339.78557568195583" fill="red" text-anchor="middle">defines</text></g><g class="cardinality"><text class="type1" x="246.375" y="309.78125" fill="black" font-size="6">many</text></g><g class="cardinality"><text class="type2" x="311.0967974327542" y="360.7842785619146" fill="black" font-size="6">1</text></g><path d="M61.68108664700498,93.640625L60.92173887250416,99.47395833333333C60.16239109800332,105.30729166666667,58.643695549001656,116.97395833333333,79.07184777450082,133.367808377574C99.5,149.76165842181467,141.875,170.88269184362935,163.0625,181.44320855453668L184.25,192.00372526544402" id="edge1" class="relation" marker-end="url(#dependencyEnd)"></path><g class="classLabel"><rect class="box" x="78.515625" y="140.34375" width="53.515625" height="17.015625"></rect><text class="label" x="104.89306654259362" y="152.4497324912469" fill="red" text-anchor="middle">references</text></g><g class="cardinality"><text class="type1" x="55.10935871626559" y="105.39062040443909" fill="black" font-size="6">many</text></g><g class="cardinality"><text class="type2" x="177.5235517205386" y="177.4777177773649" fill="black" font-size="6">1</text></g><path d="M72.56891335299501,93.640625L73.32826112749585,99.47395833333333C74.08760890199667,105.30729166666667,75.60630445099834,116.97395833333333,75.5049512921766,131.140625C75.40359813335486,145.30729166666666,73.68219626670971,161.97395833333334,72.82149533338713,170.30729166666666L71.96079440006456,178.640625" id="edge2" class="relation dashed-line"></path><g class="classLabel"><rect class="box" x="57.578125" y="123.984375" width="38.3125" height="17.015625"></rect><text class="label" x="76.3559739150599" y="136.0863595864551" fill="red" text-anchor="middle">defines</text></g><g class="cardinality"><text class="type1" x="69.22430571357243" y="106.68146852096581" fill="black" font-size="6">many</text></g><g class="cardinality"><text class="type2" x="78.21855666663745" y="166.72045673713322" fill="black" font-size="6">1</text></g><path d="M499.8046875,77.88526345846455L481.7747395833333,86.34449038205379C463.7447916666667,94.80371730564303,427.6848958333333,111.72217115282153,397.4674479166667,128.5949279059562C367.25,145.4676846590909,342.875,162.2947443181818,330.6875,170.70827414772725L318.5,179.12180397727272" id="edge3" class="relation" marker-end="url(#dependencyEnd)"></path><g class="classLabel"><rect class="box" x="386.484375" y="110.03125" width="38.78125" height="17.015625"></rect><text class="label" x="405.49313186832586" y="122.13402414775987" fill="red" text-anchor="middle">creates</text></g><g class="cardinality"><text class="type1" x="486.3645542500224" y="78.66809052930955" fill="black" font-size="6">1</text></g><g class="cardinality"><text class="type2" x="334.46801515168806" y="180.24985189977482" fill="black" font-size="6">1</text></g><path d="M601.0226310637648,98.640625L605.8990675531373,103.640625C610.7755040425099,108.640625,620.528377021255,118.640625,625.4048135106275,139.77734375C630.28125,160.9140625,630.28125,193.1875,630.28125,225.4609375C630.28125,257.734375,630.28125,290.0078125,604.90234375,316.7776133587295C579.5234375,343.5474142174591,528.765625,364.81357843491816,503.38671875,375.44666054364774L478.0078125,386.07974265237726" id="edge4" class="relation dashed-line"></path><g class="classLabel"><rect class="box" x="589.8125" y="274.953125" width="81.6875" height="17.015625"></rect><text class="label" x="630.28125" y="287.0573603846376" fill="red" text-anchor="middle">uniquely_defines</text></g><g class="cardinality"><text class="type1" x="606.1707140482308" y="111.08036943407309" fill="black" font-size="6">1</text></g><g class="cardinality"><text class="type2" x="491.4689473642581" y="385.86100041536076" fill="black" font-size="6">1</text></g><path d="M239.5625,78.640625L239.5625,86.97395833333333C239.5625,95.30729166666667,239.5625,111.97395833333333,240.07085148874364,124.47395833333333C240.57920297748728,136.97395833333334,241.59590595497457,145.30729166666666,242.1042574437182,149.47395833333334L242.61260893246188,153.640625" id="edge5" class="relation" marker-start="url(#dependencyStart)"></path><g class="classLabel"><rect class="box" x="213.1875" y="104.125" width="53.515625" height="17.015625"></rect><text class="label" x="239.5625" y="116.23331300236752" fill="red" text-anchor="middle">references</text></g><g class="cardinality"><text class="type1" x="229.5625" y="91.140625" fill="black" font-size="6">1</text></g><g class="cardinality"><text class="type2" x="246.0619772614435" y="140.62709903156934" fill="black" font-size="6">many</text></g><path d="M426.2615356199064,267.28125L417.5135192665887,276.4479166666667C408.76550291327095,285.6145833333333,391.2694702066355,303.9479166666667,383.6250626412663,321.4479166666667C375.9806550758971,338.9479166666667,378.1878726517942,355.6145833333333,379.2914814397427,363.9479166666667L380.39509022769124,372.28125" id="edge6" class="relation dashed-line"></path><g class="classLabel"><rect class="box" x="360.703125" y="300.921875" width="43.140625" height="17.015625"></rect><text class="label" x="382.60694270098594" y="313.0250032801371" fill="red" text-anchor="middle">junction</text></g><g class="cardinality"><text class="type1" x="414.0144441118217" y="272.87220247633167" fill="black" font-size="6">many</text></g><g class="cardinality"><text class="type2" x="383.7107277485232" y="359.2330107383045" fill="black" font-size="6">1</text></g><path d="M506.2441908990963,267.28125L515.0277111659135,276.4479166666667C523.8112314327309,285.6145833333333,541.3782719663654,303.9479166666667,564.8512453581827,322.48709661647655C588.32421875,341.0262765662864,617.703125,359.7713031325729,632.392578125,369.1438164157161L647.08203125,378.5163296988593" id="edge7" class="relation dashed-line"></path><g class="classLabel"><rect class="box" x="549" y="317.8125" width="43.140625" height="17.015625"></rect><text class="label" x="570.9057871076648" y="329.91255568436566" fill="red" text-anchor="middle">junction</text></g><g class="cardinality"><text class="type1" x="511.28221354171393" y="279.76597377958245" fill="black" font-size="6">many</text></g><g class="cardinality"><text class="type2" x="639.2337052248931" y="367.5776927360732" fill="black" font-size="6">1</text></g><path d="M674.6634324468627,103.640625L670.5997353723856,107.80729166666667C666.5360382979085,111.97395833333333,658.4086441489543,120.30729166666667,599.0480720744771,137.89530913386213C539.6875,155.48332660105757,429.09375,182.32602820211514,373.796875,195.74737900264395L318.5,209.16872980317274" id="edge8" class="relation" marker-end="url(#dependencyEnd)"></path><g class="classLabel"><rect class="box" x="474.96875" y="152.671875" width="53.53125" height="17.015625"></rect><text class="label" x="501.3585870671845" y="164.78630776001535" fill="red" text-anchor="middle">references</text></g><g class="cardinality"><text class="type1" x="662.3563761932335" y="109.09831373883503" fill="black" font-size="6">many</text></g><g class="cardinality"><text class="type2" x="333.0059825412382" y="215.93825493521067" fill="black" font-size="6">1</text></g><path d="M751.9459477175074,103.640625L754.0962324729229,107.80729166666667C756.2465172283382,111.97395833333333,760.5470867391691,120.30729166666667,762.6973714945847,140.61067708333334C764.84765625,160.9140625,764.84765625,193.1875,764.84765625,225.4609375C764.84765625,257.734375,764.84765625,290.0078125,762.9521474134568,310.3111979166667C761.0566385769138,330.6145833333333,757.2656209038274,338.9479166666667,755.3701120672844,343.1145833333333L753.4746032307412,347.28125" id="edge9" class="relation dashed-line"></path><g class="classLabel"><rect class="box" x="746.078125" y="213.015625" width="38.296875" height="17.015625"></rect><text class="label" x="764.84765625" y="225.12722368472" fill="red" text-anchor="middle">defines</text></g><g class="cardinality"><text class="type1" x="753.2352386782347" y="117.0416596174684" fill="black" font-size="6">many</text></g><g class="cardinality"><text class="type2" x="763.20187800192" y="337.97371941847695" fill="black" font-size="6">1</text></g><path d="M895.796875,83.640625L895.796875,91.140625C895.796875,98.640625,895.796875,113.640625,895.796875,131.97395833333334C895.796875,150.30729166666666,895.796875,171.97395833333334,895.796875,182.80729166666666L895.796875,193.640625" id="edge10" class="relation dashed-line"></path><g class="classLabel"><rect class="box" x="843.75" y="126.53125" width="104.84375" height="17.015625"></rect><text class="label" x="895.796875" y="138.640625" fill="red" text-anchor="middle">connect_to_all_tables</text></g></svg>